<svg width="86" height="19" viewBox="0 0 86 19" fill="none" xmlns="http://www.w3.org/2000/svg">
<path d="M0.848 0.359998H7.232C8.296 0.359998 9.25733 0.481332 10.116 0.723999C10.9747 0.966666 11.7027 1.32133 12.3 1.788C12.916 2.25467 13.3827 2.824 13.7 3.496C14.036 4.14933 14.204 4.90533 14.204 5.764C14.204 6.79067 14.008 7.67733 13.616 8.424C13.224 9.17067 12.692 9.796 12.02 10.3C11.3667 10.7853 10.592 11.1493 9.696 11.392C8.81867 11.616 7.88533 11.728 6.896 11.728H5.104V18H0.848V0.359998ZM5.104 8.508H6.644C7.05467 8.508 7.456 8.46133 7.848 8.368C8.24 8.27467 8.576 8.13467 8.856 7.948C9.15467 7.74267 9.388 7.48133 9.556 7.164C9.74267 6.84667 9.836 6.45467 9.836 5.988C9.836 5.18533 9.556 4.57867 8.996 4.168C8.45467 3.75733 7.72667 3.552 6.812 3.552H5.104V8.508ZM29.9748 11.196C29.9748 12.2973 29.7881 13.2867 29.4148 14.164C29.0601 15.0413 28.5654 15.788 27.9308 16.404C27.2961 17.02 26.5494 17.496 25.6908 17.832C24.8321 18.1493 23.9081 18.308 22.9188 18.308C21.9294 18.308 21.0054 18.1587 20.1468 17.86C19.3068 17.5427 18.5788 17.0947 17.9628 16.516C17.3468 15.9373 16.8614 15.228 16.5068 14.388C16.1521 13.5293 15.9748 12.5587 15.9748 11.476C15.9748 10.3373 16.1521 9.32 16.5068 8.424C16.8801 7.528 17.3841 6.772 18.0188 6.156C18.6534 5.54 19.4001 5.07333 20.2588 4.756C21.1174 4.42 22.0414 4.252 23.0308 4.252C24.0201 4.252 24.9348 4.40133 25.7748 4.7C26.6334 4.99867 27.3708 5.44667 27.9868 6.044C28.6028 6.62267 29.0881 7.34133 29.4428 8.2C29.7974 9.05867 29.9748 10.0573 29.9748 11.196ZM25.7188 11.336C25.7188 10.608 25.6441 9.992 25.4948 9.488C25.3454 8.96533 25.1401 8.54533 24.8788 8.228C24.6174 7.892 24.3188 7.64933 23.9828 7.5C23.6468 7.35067 23.3014 7.276 22.9468 7.276C22.5921 7.276 22.2468 7.34133 21.9108 7.472C21.5934 7.60267 21.3041 7.82667 21.0428 8.144C20.8001 8.46133 20.6041 8.88133 20.4548 9.404C20.3054 9.908 20.2308 10.552 20.2308 11.336C20.2308 12.6987 20.5108 13.6973 21.0708 14.332C21.6308 14.9667 22.2748 15.284 23.0028 15.284C23.3574 15.284 23.6934 15.2187 24.0108 15.088C24.3468 14.9387 24.6361 14.7147 24.8788 14.416C25.1401 14.0987 25.3454 13.688 25.4948 13.184C25.6441 12.68 25.7188 12.064 25.7188 11.336ZM36.6782 18H32.5342V4.56H35.7542L36.2302 6.24C36.8275 5.624 37.4808 5.13867 38.1902 4.784C38.8995 4.42933 39.6928 4.252 40.5702 4.252C42.4928 4.252 43.8088 4.93333 44.5182 6.296C45.1155 5.68 45.7875 5.18533 46.5342 4.812C47.2995 4.43867 48.1115 4.252 48.9702 4.252C50.4075 4.252 51.5182 4.644 52.3022 5.428C53.0862 6.19333 53.4782 7.32267 53.4782 8.816V18H49.3342V9.236C49.3342 8.676 49.1848 8.228 48.8862 7.892C48.5875 7.556 48.1862 7.388 47.6822 7.388C47.2342 7.388 46.7675 7.5 46.2822 7.724C45.7968 7.948 45.3955 8.27467 45.0782 8.704V18H40.9342V9.236C40.9342 8.676 40.7848 8.228 40.4862 7.892C40.1875 7.556 39.7862 7.388 39.2822 7.388C38.8342 7.388 38.3675 7.51867 37.8822 7.78C37.3968 8.04133 36.9955 8.38667 36.6782 8.816V18ZM70.0334 11.196C70.0334 12.2973 69.8467 13.2867 69.4734 14.164C69.1187 15.0413 68.624 15.788 67.9894 16.404C67.3547 17.02 66.608 17.496 65.7494 17.832C64.8907 18.1493 63.9667 18.308 62.9774 18.308C61.988 18.308 61.064 18.1587 60.2054 17.86C59.3654 17.5427 58.6374 17.0947 58.0214 16.516C57.4054 15.9373 56.92 15.228 56.5654 14.388C56.2107 13.5293 56.0334 12.5587 56.0334 11.476C56.0334 10.3373 56.2107 9.32 56.5654 8.424C56.9387 7.528 57.4427 6.772 58.0774 6.156C58.712 5.54 59.4587 5.07333 60.3174 4.756C61.176 4.42 62.1 4.252 63.0894 4.252C64.0787 4.252 64.9934 4.40133 65.8334 4.7C66.692 4.99867 67.4294 5.44667 68.0454 6.044C68.6614 6.62267 69.1467 7.34133 69.5014 8.2C69.856 9.05867 70.0334 10.0573 70.0334 11.196ZM65.7774 11.336C65.7774 10.608 65.7027 9.992 65.5534 9.488C65.404 8.96533 65.1987 8.54533 64.9374 8.228C64.676 7.892 64.3774 7.64933 64.0414 7.5C63.7054 7.35067 63.36 7.276 63.0054 7.276C62.6507 7.276 62.3054 7.34133 61.9694 7.472C61.652 7.60267 61.3627 7.82667 61.1014 8.144C60.8587 8.46133 60.6627 8.88133 60.5134 9.404C60.364 9.908 60.2894 10.552 60.2894 11.336C60.2894 12.6987 60.5694 13.6973 61.1294 14.332C61.6894 14.9667 62.3334 15.284 63.0614 15.284C63.416 15.284 63.752 15.2187 64.0694 15.088C64.4054 14.9387 64.6947 14.7147 64.9374 14.416C65.1987 14.0987 65.404 13.688 65.5534 13.184C65.7027 12.68 65.7774 12.064 65.7774 11.336ZM85.8928 11.196C85.8928 12.2973 85.7061 13.2867 85.3328 14.164C84.9781 15.0413 84.4834 15.788 83.8488 16.404C83.2141 17.02 82.4674 17.496 81.6088 17.832C80.7501 18.1493 79.8261 18.308 78.8368 18.308C77.8474 18.308 76.9234 18.1587 76.0648 17.86C75.2248 17.5427 74.4968 17.0947 73.8808 16.516C73.2648 15.9373 72.7794 15.228 72.4248 14.388C72.0701 13.5293 71.8927 12.5587 71.8927 11.476C71.8927 10.3373 72.0701 9.32 72.4248 8.424C72.7981 7.528 73.3021 6.772 73.9368 6.156C74.5714 5.54 75.3181 5.07333 76.1768 4.756C77.0354 4.42 77.9594 4.252 78.9488 4.252C79.9381 4.252 80.8528 4.40133 81.6928 4.7C82.5514 4.99867 83.2888 5.44667 83.9048 6.044C84.5208 6.62267 85.0061 7.34133 85.3607 8.2C85.7154 9.05867 85.8928 10.0573 85.8928 11.196ZM81.6368 11.336C81.6368 10.608 81.5621 9.992 81.4128 9.488C81.2634 8.96533 81.0581 8.54533 80.7968 8.228C80.5354 7.892 80.2368 7.64933 79.9008 7.5C79.5648 7.35067 79.2194 7.276 78.8648 7.276C78.5101 7.276 78.1648 7.34133 77.8288 7.472C77.5114 7.60267 77.2221 7.82667 76.9608 8.144C76.7181 8.46133 76.5221 8.88133 76.3728 9.404C76.2234 9.908 76.1488 10.552 76.1488 11.336C76.1488 12.6987 76.4288 13.6973 76.9888 14.332C77.5488 14.9667 78.1928 15.284 78.9208 15.284C79.2754 15.284 79.6114 15.2187 79.9288 15.088C80.2648 14.9387 80.5541 14.7147 80.7968 14.416C81.0581 14.0987 81.2634 13.688 81.4128 13.184C81.5621 12.68 81.6368 12.064 81.6368 11.336Z" fill="white"/>
</svg>
